<mxfile host="app.diagrams.net" modified="2022-05-04T00:52:36.015Z" agent="5.0 (Windows NT 10.0; Win64; x64) AppleWebKit/537.36 (KHTML, like Gecko) Chrome/100.0.4896.127 Safari/537.36" etag="gA6suNi7VZo6591bJx03" version="17.5.0" type="github">
  <diagram id="go12fbdZc-8cy8aq6b-e" name="Page-1">
    <mxGraphModel dx="1871" dy="1735" grid="1" gridSize="10" guides="1" tooltips="1" connect="1" arrows="1" fold="1" page="1" pageScale="1" pageWidth="827" pageHeight="1169" math="0" shadow="0">
      <root>
        <mxCell id="0" />
        <mxCell id="1" parent="0" />
        <mxCell id="A9pDBSFhj02w28m8OJDG-57" value="" style="edgeStyle=orthogonalEdgeStyle;rounded=0;orthogonalLoop=1;jettySize=auto;html=1;fontSize=18;" edge="1" parent="1" source="A9pDBSFhj02w28m8OJDG-3" target="A9pDBSFhj02w28m8OJDG-56">
          <mxGeometry relative="1" as="geometry" />
        </mxCell>
        <mxCell id="A9pDBSFhj02w28m8OJDG-3" value="&lt;font style=&quot;font-size: 18px&quot;&gt;Diga N1&lt;/font&gt;" style="shape=parallelogram;perimeter=parallelogramPerimeter;whiteSpace=wrap;html=1;fixedSize=1;" vertex="1" parent="1">
          <mxGeometry x="116.25" y="90" width="215" height="70" as="geometry" />
        </mxCell>
        <mxCell id="A9pDBSFhj02w28m8OJDG-22" value="" style="endArrow=classic;html=1;rounded=0;fontSize=18;exitX=0.5;exitY=1;exitDx=0;exitDy=0;entryX=0.5;entryY=0;entryDx=0;entryDy=0;" edge="1" parent="1" source="A9pDBSFhj02w28m8OJDG-55" target="A9pDBSFhj02w28m8OJDG-3">
          <mxGeometry width="50" height="50" relative="1" as="geometry">
            <mxPoint x="225" y="140" as="sourcePoint" />
            <mxPoint x="450" y="150" as="targetPoint" />
            <Array as="points" />
          </mxGeometry>
        </mxCell>
        <mxCell id="A9pDBSFhj02w28m8OJDG-72" style="edgeStyle=orthogonalEdgeStyle;rounded=0;orthogonalLoop=1;jettySize=auto;html=1;entryX=0.5;entryY=0;entryDx=0;entryDy=0;fontSize=18;" edge="1" parent="1" source="A9pDBSFhj02w28m8OJDG-33" target="A9pDBSFhj02w28m8OJDG-35">
          <mxGeometry relative="1" as="geometry" />
        </mxCell>
        <mxCell id="A9pDBSFhj02w28m8OJDG-33" value="Início" style="ellipse;whiteSpace=wrap;html=1;fontSize=12;" vertex="1" parent="1">
          <mxGeometry x="925" y="60" width="180" height="80" as="geometry" />
        </mxCell>
        <mxCell id="A9pDBSFhj02w28m8OJDG-37" value="" style="edgeStyle=orthogonalEdgeStyle;rounded=0;orthogonalLoop=1;jettySize=auto;html=1;fontSize=12;" edge="1" parent="1" source="A9pDBSFhj02w28m8OJDG-35" target="A9pDBSFhj02w28m8OJDG-36">
          <mxGeometry relative="1" as="geometry" />
        </mxCell>
        <mxCell id="A9pDBSFhj02w28m8OJDG-35" value="Pergunta&amp;nbsp;" style="shape=parallelogram;perimeter=parallelogramPerimeter;whiteSpace=wrap;html=1;fixedSize=1;fontSize=12;" vertex="1" parent="1">
          <mxGeometry x="915" y="180" width="200" height="70" as="geometry" />
        </mxCell>
        <mxCell id="A9pDBSFhj02w28m8OJDG-54" style="edgeStyle=orthogonalEdgeStyle;rounded=0;orthogonalLoop=1;jettySize=auto;html=1;fontSize=10;" edge="1" parent="1" source="A9pDBSFhj02w28m8OJDG-36" target="A9pDBSFhj02w28m8OJDG-51">
          <mxGeometry relative="1" as="geometry" />
        </mxCell>
        <mxCell id="A9pDBSFhj02w28m8OJDG-36" value="Var = resposta&amp;nbsp;" style="shape=document;whiteSpace=wrap;html=1;boundedLbl=1;" vertex="1" parent="1">
          <mxGeometry x="925" y="330" width="180" height="85" as="geometry" />
        </mxCell>
        <mxCell id="A9pDBSFhj02w28m8OJDG-40" value="SENÃO diga :resposta errada&amp;nbsp;" style="whiteSpace=wrap;html=1;" vertex="1" parent="1">
          <mxGeometry x="920" y="750" width="190" height="60" as="geometry" />
        </mxCell>
        <mxCell id="A9pDBSFhj02w28m8OJDG-42" value="Fim" style="ellipse;whiteSpace=wrap;html=1;fontSize=12;" vertex="1" parent="1">
          <mxGeometry x="40" y="880" width="460" height="260" as="geometry" />
        </mxCell>
        <mxCell id="A9pDBSFhj02w28m8OJDG-48" value="crie um número para que o &lt;br&gt;usuário tente acertar&amp;nbsp;" style="text;html=1;align=center;verticalAlign=middle;resizable=0;points=[];autosize=1;strokeColor=none;fillColor=none;fontSize=24;" vertex="1" parent="1">
          <mxGeometry x="830" y="-20" width="300" height="60" as="geometry" />
        </mxCell>
        <mxCell id="A9pDBSFhj02w28m8OJDG-51" value="&lt;span&gt;&lt;font style=&quot;font-size: 10px&quot;&gt;criar uma condição SE (resposta = 13) diga: Certa resposta&lt;/font&gt;&lt;/span&gt;" style="rhombus;whiteSpace=wrap;html=1;" vertex="1" parent="1">
          <mxGeometry x="910" y="502.5" width="210" height="127.5" as="geometry" />
        </mxCell>
        <mxCell id="A9pDBSFhj02w28m8OJDG-55" value="&lt;font style=&quot;font-size: 18px&quot;&gt;Início&lt;/font&gt;" style="ellipse;whiteSpace=wrap;html=1;fontSize=10;" vertex="1" parent="1">
          <mxGeometry x="123.75" y="-170" width="200" height="160" as="geometry" />
        </mxCell>
        <mxCell id="A9pDBSFhj02w28m8OJDG-58" style="edgeStyle=orthogonalEdgeStyle;rounded=0;orthogonalLoop=1;jettySize=auto;html=1;exitX=0.25;exitY=1;exitDx=0;exitDy=0;fontSize=18;" edge="1" parent="1" source="A9pDBSFhj02w28m8OJDG-56">
          <mxGeometry relative="1" as="geometry">
            <mxPoint x="110" y="570" as="targetPoint" />
          </mxGeometry>
        </mxCell>
        <mxCell id="A9pDBSFhj02w28m8OJDG-65" value="" style="edgeStyle=orthogonalEdgeStyle;rounded=0;orthogonalLoop=1;jettySize=auto;html=1;fontSize=18;" edge="1" parent="1" source="A9pDBSFhj02w28m8OJDG-56" target="A9pDBSFhj02w28m8OJDG-64">
          <mxGeometry relative="1" as="geometry" />
        </mxCell>
        <mxCell id="A9pDBSFhj02w28m8OJDG-69" value="" style="edgeStyle=orthogonalEdgeStyle;rounded=0;orthogonalLoop=1;jettySize=auto;html=1;fontSize=18;" edge="1" parent="1" source="A9pDBSFhj02w28m8OJDG-56" target="A9pDBSFhj02w28m8OJDG-68">
          <mxGeometry relative="1" as="geometry" />
        </mxCell>
        <mxCell id="A9pDBSFhj02w28m8OJDG-71" value="" style="edgeStyle=orthogonalEdgeStyle;rounded=0;orthogonalLoop=1;jettySize=auto;html=1;fontSize=18;" edge="1" parent="1" source="A9pDBSFhj02w28m8OJDG-56" target="A9pDBSFhj02w28m8OJDG-70">
          <mxGeometry relative="1" as="geometry" />
        </mxCell>
        <mxCell id="A9pDBSFhj02w28m8OJDG-56" value="&lt;span style=&quot;font-size: 18px&quot;&gt;Diga N2&lt;/span&gt;" style="shape=parallelogram;perimeter=parallelogramPerimeter;whiteSpace=wrap;html=1;fixedSize=1;" vertex="1" parent="1">
          <mxGeometry x="120" y="290" width="207.5" height="65" as="geometry" />
        </mxCell>
        <mxCell id="A9pDBSFhj02w28m8OJDG-62" value="" style="edgeStyle=orthogonalEdgeStyle;rounded=0;orthogonalLoop=1;jettySize=auto;html=1;fontSize=18;" edge="1" parent="1" source="A9pDBSFhj02w28m8OJDG-59" target="A9pDBSFhj02w28m8OJDG-61">
          <mxGeometry relative="1" as="geometry" />
        </mxCell>
        <mxCell id="A9pDBSFhj02w28m8OJDG-59" value="N1+N2" style="rounded=0;whiteSpace=wrap;html=1;fontSize=18;" vertex="1" parent="1">
          <mxGeometry x="60" y="557.5" width="120" height="60" as="geometry" />
        </mxCell>
        <mxCell id="A9pDBSFhj02w28m8OJDG-81" style="edgeStyle=orthogonalEdgeStyle;rounded=0;orthogonalLoop=1;jettySize=auto;html=1;fontSize=18;" edge="1" parent="1" source="A9pDBSFhj02w28m8OJDG-61">
          <mxGeometry relative="1" as="geometry">
            <mxPoint x="130" y="910" as="targetPoint" />
          </mxGeometry>
        </mxCell>
        <mxCell id="A9pDBSFhj02w28m8OJDG-61" value="Resposta" style="shape=document;whiteSpace=wrap;html=1;boundedLbl=1;fontSize=18;rounded=0;" vertex="1" parent="1">
          <mxGeometry x="60" y="687.5" width="120" height="80" as="geometry" />
        </mxCell>
        <mxCell id="A9pDBSFhj02w28m8OJDG-67" value="" style="edgeStyle=orthogonalEdgeStyle;rounded=0;orthogonalLoop=1;jettySize=auto;html=1;fontSize=18;" edge="1" parent="1" source="A9pDBSFhj02w28m8OJDG-64" target="A9pDBSFhj02w28m8OJDG-66">
          <mxGeometry relative="1" as="geometry" />
        </mxCell>
        <mxCell id="A9pDBSFhj02w28m8OJDG-64" value="&lt;font style=&quot;font-size: 18px&quot;&gt;N1*N2&lt;/font&gt;" style="whiteSpace=wrap;html=1;" vertex="1" parent="1">
          <mxGeometry x="280" y="565" width="120" height="65" as="geometry" />
        </mxCell>
        <mxCell id="A9pDBSFhj02w28m8OJDG-79" style="edgeStyle=orthogonalEdgeStyle;rounded=0;orthogonalLoop=1;jettySize=auto;html=1;fontSize=18;" edge="1" parent="1" source="A9pDBSFhj02w28m8OJDG-66" target="A9pDBSFhj02w28m8OJDG-42">
          <mxGeometry relative="1" as="geometry" />
        </mxCell>
        <mxCell id="A9pDBSFhj02w28m8OJDG-66" value="&lt;font style=&quot;font-size: 18px&quot;&gt;Resposta&lt;/font&gt;" style="shape=document;whiteSpace=wrap;html=1;boundedLbl=1;" vertex="1" parent="1">
          <mxGeometry x="280" y="687.5" width="120" height="80" as="geometry" />
        </mxCell>
        <mxCell id="A9pDBSFhj02w28m8OJDG-75" value="" style="edgeStyle=orthogonalEdgeStyle;rounded=0;orthogonalLoop=1;jettySize=auto;html=1;fontSize=18;" edge="1" parent="1" source="A9pDBSFhj02w28m8OJDG-68" target="A9pDBSFhj02w28m8OJDG-74">
          <mxGeometry relative="1" as="geometry" />
        </mxCell>
        <mxCell id="A9pDBSFhj02w28m8OJDG-68" value="&lt;font style=&quot;font-size: 18px&quot;&gt;N1-N2&lt;/font&gt;" style="whiteSpace=wrap;html=1;" vertex="1" parent="1">
          <mxGeometry x="-150" y="570" width="120" height="60" as="geometry" />
        </mxCell>
        <mxCell id="A9pDBSFhj02w28m8OJDG-77" value="" style="edgeStyle=orthogonalEdgeStyle;rounded=0;orthogonalLoop=1;jettySize=auto;html=1;fontSize=18;" edge="1" parent="1" source="A9pDBSFhj02w28m8OJDG-70" target="A9pDBSFhj02w28m8OJDG-76">
          <mxGeometry relative="1" as="geometry" />
        </mxCell>
        <mxCell id="A9pDBSFhj02w28m8OJDG-70" value="&lt;font style=&quot;font-size: 18px&quot;&gt;N1/N2&lt;/font&gt;" style="whiteSpace=wrap;html=1;" vertex="1" parent="1">
          <mxGeometry x="465" y="550" width="120" height="60" as="geometry" />
        </mxCell>
        <mxCell id="A9pDBSFhj02w28m8OJDG-83" style="edgeStyle=orthogonalEdgeStyle;rounded=0;orthogonalLoop=1;jettySize=auto;html=1;entryX=0;entryY=0.5;entryDx=0;entryDy=0;fontSize=18;" edge="1" parent="1" source="A9pDBSFhj02w28m8OJDG-74" target="A9pDBSFhj02w28m8OJDG-42">
          <mxGeometry relative="1" as="geometry" />
        </mxCell>
        <mxCell id="A9pDBSFhj02w28m8OJDG-74" value="&lt;font style=&quot;font-size: 18px&quot;&gt;Resposta&lt;/font&gt;" style="shape=document;whiteSpace=wrap;html=1;boundedLbl=1;" vertex="1" parent="1">
          <mxGeometry x="-150" y="687.5" width="120" height="80" as="geometry" />
        </mxCell>
        <mxCell id="A9pDBSFhj02w28m8OJDG-80" style="edgeStyle=orthogonalEdgeStyle;rounded=0;orthogonalLoop=1;jettySize=auto;html=1;entryX=1;entryY=0.615;entryDx=0;entryDy=0;entryPerimeter=0;fontSize=18;" edge="1" parent="1" source="A9pDBSFhj02w28m8OJDG-76" target="A9pDBSFhj02w28m8OJDG-42">
          <mxGeometry relative="1" as="geometry" />
        </mxCell>
        <mxCell id="A9pDBSFhj02w28m8OJDG-76" value="&lt;font style=&quot;font-size: 18px&quot;&gt;Resposta&lt;/font&gt;" style="shape=document;whiteSpace=wrap;html=1;boundedLbl=1;" vertex="1" parent="1">
          <mxGeometry x="465" y="680" width="120" height="80" as="geometry" />
        </mxCell>
        <mxCell id="A9pDBSFhj02w28m8OJDG-85" value="Operadores" style="rounded=0;whiteSpace=wrap;html=1;fontSize=18;" vertex="1" parent="1">
          <mxGeometry x="-90" y="200" width="120" height="60" as="geometry" />
        </mxCell>
      </root>
    </mxGraphModel>
  </diagram>
</mxfile>
